<svg xmlns="http://www.w3.org/2000/svg" width="110" height="107" fill="none"><path fill="#AF0" d="M52.857 106.53c-1.405 0-2.613-1.208-2.613-2.613V91.306c0-1.406 1.208-2.614 2.613-2.614s2.594 1.208 2.594 2.614v12.611c0 1.405-1.208 2.613-2.594 2.613M52.857 87.307c-1.405 0-2.613-1.208-2.613-2.594V61.491c0-1.406 1.208-2.593 2.613-2.593s2.594 1.207 2.594 2.593v23.44c0 1.208-1.208 2.395-2.594 2.395z"/><path fill="#AF0" d="M52.858 93.919H43.85c-8.81 0-16.016-7.207-16.016-16.017V71.29c0-1.406 1.208-2.613 2.593-2.613h9.008c8.81 0 16.016 7.206 16.016 16.016 0 1.406-1.207 2.593-2.593 2.593s-2.613-1.207-2.613-2.593c0-5.999-4.811-11.007-11.008-11.007h-6.612v3.999c0 5.998 4.81 11.007 11.007 11.007h9.008c1.406 0 2.594 1.208 2.594 2.613.198 1.406-1.01 2.594-2.396 2.594z"/><path fill="#AF0" d="M62.082 93.919h-9.008c-1.406 0-2.593-1.208-2.593-2.594v-6.612c0-8.81 7.206-16.016 16.016-16.016h9.007c1.406 0 2.614 1.207 2.614 2.593v6.613c-.198 8.81-7.405 16.016-16.016 16.016zm-6.613-5.01h6.613c5.998 0 11.007-4.81 11.007-11.006v-4h-6.612c-6.019 0-11.008 4.811-11.008 11.008z"/><path fill="#AF0" d="M52.858 93.919c-.594 0-1.208-.198-1.802-.792a2.52 2.52 0 0 1 0-3.603l10.018-10.018a2.52 2.52 0 0 1 3.603 0 2.52 2.52 0 0 1 0 3.603L54.659 93.127c-.396.594-1.207.792-1.801.792"/><path fill="#AF0" d="M52.858 93.92c-.594 0-1.208-.199-1.802-.793L41.039 83.11c-1.01-1.01-1.01-2.613 0-3.603s2.613-1.01 3.603 0l10.017 10.017c1.01 1.01 1.01 2.613 0 3.603-.396.594-1.207.792-1.801.792M52.856 48.86a7.604 7.604 0 0 1-7.602-7.602 7.604 7.604 0 0 1 7.602-7.603 7.604 7.604 0 0 1 7.602 7.602 7.604 7.604 0 0 1-7.602 7.603m0-10.018c-1.406 0-2.613 1.208-2.613 2.614s1.207 2.593 2.613 2.593 2.594-1.208 2.594-2.593-1.208-2.614-2.594-2.614"/><path fill="#AF0" d="M52.858 63.886c-11.82 0-21.223-9.622-21.223-21.223V21.44c0-1.405 1.207-2.593 2.593-2.593h5.009c1.406 0 2.593 1.207 2.593 2.593s-1.207 2.594-2.593 2.594h-2.613V42.86a16.147 16.147 0 0 0 16.214 16.214 16.147 16.147 0 0 0 16.214-16.214V23.836h-2.594c-1.405 0-2.613-1.208-2.613-2.594s1.208-2.593 2.613-2.593h5.01c1.405 0 2.593 1.208 2.593 2.593v21.223c0 11.82-9.404 21.421-21.223 21.421z"/><path fill="#AF0" d="M59.074 23.836H46.463c-1.406 0-2.613-1.208-2.613-2.594s1.207-2.593 2.613-2.593h12.61c1.406 0 2.594 1.208 2.594 2.593s-1.207 2.594-2.593 2.594"/><path fill="#AF0" d="M46.66 23.836H39.06c-1.406 0-2.614-1.208-2.614-2.593V6.216C36.445 2.811 39.257 0 42.662 0c1.603 0 3.207.594 4.415 1.802 1.207 1.207 1.801 2.81 1.801 4.414v15.027c.198 1.405-.792 2.593-2.197 2.593zm-5.008-5.009h2.395V6.217c0-.397-.197-.792-.395-.792-.198-.198-.396-.396-.792-.396-.594 0-1.208.593-1.208 1.207v12.611zM66.676 23.836h-7.602c-1.406 0-2.593-1.208-2.593-2.593V6.216C56.48 2.811 59.29 0 62.697 0c1.603 0 3.207.594 4.415 1.802 1.207 1.207 1.801 2.81 1.801 4.414v15.027c.198 1.405-.792 2.593-2.197 2.593zm-5.009-5.009h2.396V6.217c0-.397-.198-.792-.396-.792-.198-.198-.396-.396-.792-.396-.594 0-1.208.593-1.208 1.207v12.611zM3.403 73.904c-.594 0-1.01-.198-1.405-.397-1.01-.791-1.406-1.999-.792-3.207L6.61 59.293H2.413c-.792 0-1.603-.396-2-1.208-.395-.792-.593-1.603-.197-2.395l7.008-15.62c.396-.792 1.208-1.406 2.198-1.406h9.403c.792 0 1.604.396 2.198 1.208.594.792.594 1.603.198 2.395l-2 4.613 6.217.792c1.01.198 1.801.792 2 1.604.395 1.01 0 1.801-.595 2.613L15.925 62.5 5.007 73.112c-.396.594-1.01.791-1.604.791m2.594-19.64h4.415c.791 0 1.603.396 2.197 1.208.396.792.594 1.604.198 2.395l-.792 1.208 7.206-7.206-4.414-.594c-.792-.198-1.406-.594-1.802-1.208-.396-.594-.396-1.603 0-2.197l1.801-4.197h-3.999l-4.81 10.611zM85.305 56.68c-.594 0-1.01-.198-1.406-.396-1.01-.792-1.406-2-.792-3.207l5.405-11.008h-4.415c-.792 0-1.604-.396-2-1.207-.396-.812-.593-1.604-.198-2.396l7.009-15.62c.396-.792 1.207-1.406 2.197-1.406h9.404c.792 0 1.604.396 2.197 1.208.396.792.594 1.604.198 2.396l-1.999 4.612 6.216.792c1.01.198 1.802.792 2 1.604.396 1.01 0 1.801-.594 2.613l-21.42 21.223c-.595.594-1.209.792-1.802.792m2.613-19.64h4.415c.792 0 1.603.397 2.197 1.208.396.792.594 1.604.198 2.396l-.792 1.208 7.207-7.207-4.415-.594c-.792-.198-1.406-.594-1.802-1.207-.396-.594-.396-1.604 0-2.198l1.802-4.197h-4l-4.81 10.612z"/></svg>